Coordinates
version=1
nRows=6
nColumns=63
inDegrees=yes

Units are S.I. units (second, meters, Newtons, ...)
If the header above contains a line with 'inDegrees', this indicates whether rotational values are in degrees (yes) or radians (no).

endheader
time	pelvis_tilt	pelvis_list	pelvis_rotation	pelvis_tx	pelvis_ty	pelvis_tz	hip_flexion_r	hip_adduction_r	hip_rotation_r	knee_angle_r	knee_angle_r_beta	ankle_angle_r	subtalar_angle_r	mtp_angle_r	hip_flexion_l	hip_adduction_l	hip_rotation_l	knee_angle_l	knee_angle_l_beta	ankle_angle_l	subtalar_angle_l	mtp_angle_l	L5_S1_Flex_Ext	L5_S1_Lat_Bending	L5_S1_axial_rotation	L4_L5_Flex_Ext	L4_L5_Lat_Bending	L4_L5_axial_rotation	L3_L4_Flex_Ext	L3_L4_Lat_Bending	L3_L4_axial_rotation	L2_L3_Flex_Ext	L2_L3_Lat_Bending	L2_L3_axial_rotation	L1_L2_Flex_Ext	L1_L2_Lat_Bending	L1_L2_axial_rotation	L1_T12_Flex_Ext	L1_T12_Lat_Bending	L1_T12_axial_rotation	Abs_r3	Abs_r2	Abs_r1	Abs_t1	Abs_t2	neck_flexion	neck_bending	neck_rotation	arm_flex_r	arm_add_r	arm_rot_r	elbow_flex_r	pro_sup_r	wrist_flex_r	wrist_dev_r	arm_flex_l	arm_add_l	arm_rot_l	elbow_flex_l	pro_sup_l	wrist_flex_l	wrist_dev_l
      1.57142857	     -4.51540105	     -4.62004647	     94.41938350	      0.22467896	      1.01285652	      0.45746713	      1.17615311	     -5.11745317	    -16.24729048	      8.37629649	      0.14619395	     23.35893789	     15.94754620	      0.00000000	      1.62100570	      4.05059914	    -15.60251141	      5.35905777	      0.09353320	     23.62920598	     15.43585775	      0.00000000	      0.04111324	     -0.64375441	      0.84436856	      0.07635140	     -0.85619336	      0.89714160	      0.06754494	     -1.56522447	      0.89714160	      0.04698832	     -1.56522447	      0.73882249	      0.03817776	     -1.31274399	      0.68604946	      0.02349211	     -0.99717558	      0.63327642	      0.29366777	     -7.28227861	      4.69612463	      0.00000000	      0.00000000	     23.50916307	      6.10346269	     -1.12270135	     20.53307704	      9.94692816	    188.24207371	      0.27901036	     44.68177700	    -22.29351566	    -23.52844265	     23.13541197	     -8.71032875	     83.07290076	     40.17163783	     83.45188962	     12.03798632	      9.56203859
      1.59183673	     -4.46215756	     -4.56702667	     94.08404465	      0.22474628	      1.01293282	      0.45719710	      1.25294069	     -5.07197825	    -15.76250886	      8.39533291	      0.14652620	     23.30697023	     15.90291706	      0.00000000	      1.49236003	      4.02642962	    -15.69143037	      5.26832390	      0.09194960	     23.55024323	     15.08730203	      0.00000000	      0.04242819	     -0.63242010	      0.91237140	      0.07879339	     -0.84111873	      0.96939461	      0.06970527	     -1.53766623	      0.96939461	      0.04849118	     -1.53766623	      0.79832497	      0.03939882	     -1.28963107	      0.74130176	      0.02424347	     -0.97961873	      0.68427855	      0.30306032	     -7.15406264	      5.07433601	      0.00000000	      0.00000000	     23.43920498	      5.84207195	     -1.48839172	     20.44201076	      9.81691312	    188.08378299	      0.28082463	     45.94073321	    -23.85021370	    -23.44581968	     23.28478030	     -8.39724947	     84.02836789	     39.64463617	     82.81306701	     12.10279599	      8.82790576
      1.61224490	     -4.32220526	     -4.54190971	     93.94956817	      0.22442217	      1.01298006	      0.45694472	      1.32619656	     -4.93655525	    -15.34259415	      8.42500808	      0.14704413	     23.27398921	     15.66439536	      0.00000000	      1.42549852	      3.90752919	    -15.83197652	      5.25068974	      0.09164182	     23.46914802	     14.96353780	      0.00000000	      0.04865510	     -0.60681436	      0.91506997	      0.09035739	     -0.80706310	      0.97226184	      0.07993547	     -1.47540843	      0.97226184	      0.05560792	     -1.47540843	      0.80068622	      0.04518113	     -1.23741584	      0.74349435	      0.02780153	     -0.93995544	      0.68630248	      0.34753853	     -6.86440538	      5.08934465	      0.00000000	      0.00000000	     23.40282461	      5.50829176	     -1.61864660	     20.38806879	      9.70572564	    188.33861589	      0.28137028	     47.64358115	    -25.60830786	    -23.28125811	     23.38275815	     -8.02969517	     84.98156854	     39.04546413	     82.42504050	     11.99155974	      8.00827644
      1.63265306	     -4.23962245	     -4.54259962	     93.63270227	      0.22427649	      1.01299348	      0.45659460	      1.47740089	     -4.87374377	    -14.67987582	      8.54765722	      0.14918476	     23.22073468	     15.27364618	      0.00000000	      1.36520941	      3.83907866	    -16.34688203	      5.24654422	      0.09156947	     23.36157094	     15.02696150	      0.00000000	      0.05542466	     -0.58681973	      0.92523192	      0.10292914	     -0.78047024	      0.98305892	      0.09105718	     -1.42679349	      0.98305892	      0.06334484	     -1.42679349	      0.80957793	      0.05146734	     -1.19664279	      0.75175094	      0.03166965	     -0.90898376	      0.69392394	      0.39589281	     -6.63822213	      5.14586237	      0.00000000	      0.00000000	     23.47881315	      5.26443076	     -1.63848393	     20.34281408	      9.67441013	    188.54144223	      0.28241899	     48.59804230	    -26.31328425	    -23.12464306	     23.52890800	     -7.70484612	     86.13110532	     38.51890095	     82.13074407	     11.54367606	      7.32611992
      1.65306122	     -4.13223582	     -4.59821999	     93.73842682	      0.22334482	      1.01295974	      0.45607005	      1.58840842	     -4.82294423	    -14.59290358	      8.69272709	      0.15171671	     23.22315472	     14.98516873	      0.00000000	      1.36692042	      3.79680454	    -15.94752413	      5.25979760	      0.09180079	     23.19983252	     14.40237638	      0.00000000	      0.06665646	     -0.55758293	      0.81553243	      0.12378771	     -0.74158530	      0.86650321	      0.10950990	     -1.35570714	      0.86650321	      0.07618167	     -1.35570714	      0.71359088	      0.06189719	     -1.13702311	      0.66262010	      0.03808750	     -0.86369596	      0.61164933	      0.47612043	     -6.30748963	      4.53574674	      0.00000000	      0.00000000	     23.63292132	      5.01686848	     -1.06661056	     20.31276329	      9.68570529	    189.01168081	      0.28424428	     50.32081388	    -27.47797652	    -22.84732352	     23.51997526	     -7.42295472	     86.89334603	     38.05244543	     82.49471651	     10.99867878	      6.71750445
      1.67346939	     -4.05540159	     -4.68754471	     93.89933318	      0.22230395	      1.01296240	      0.45539678	      1.70157942	     -4.81546036	    -14.56816965	      8.84341379	      0.15434669	     23.22848566	     14.65177939	      0.00000000	      1.38795441	      3.79547829	    -15.53856522	      5.25767233	      0.09176369	     23.04824092	     13.84233470	      0.00000000	      0.07867172	     -0.53109449	      0.66831464	      0.14610126	     -0.70635567	      0.71008430	      0.12924977	     -1.29130313	      0.71008430	      0.08991391	     -1.29130313	      0.58477531	      0.07305456	     -1.08300787	      0.54300564	      0.04495302	     -0.82266536	      0.50123598	      0.56194424	     -6.00784704	      3.71696552	      0.00000000	      0.00000000	     23.89226531	      4.92028319	     -0.18113310	     20.28818305	      9.77060013	    189.79820291	      0.28521463	     50.47749863	    -27.20897210	    -22.70344719	     23.44960767	     -7.26660823	     87.48146024	     37.77335461	     82.96723656	     10.25239287	      6.30834424
